<mxfile host="app.diagrams.net" modified="2023-04-17T11:49:02.816Z" agent="5.0 (Windows NT 10.0; Win64; x64) AppleWebKit/537.36 (KHTML, like Gecko) Chrome/112.0.0.0 Safari/537.36 Edg/112.0.1722.48" etag="BEZtVhUl3WvDs-OsgdMh" version="17.4.6" type="github">
  <diagram id="aYhUNzEjykN6DMeu4XnG" name="Page-1">
    <mxGraphModel dx="1344" dy="802" grid="1" gridSize="10" guides="1" tooltips="1" connect="1" arrows="1" fold="1" page="1" pageScale="1" pageWidth="827" pageHeight="1169" math="0" shadow="0">
      <root>
        <mxCell id="0" />
        <mxCell id="1" parent="0" />
        <mxCell id="3xvIhi2S66PUS-j85mXG-2" value="" style="edgeStyle=orthogonalEdgeStyle;rounded=0;orthogonalLoop=1;jettySize=auto;html=1;" edge="1" parent="1" source="3xvIhi2S66PUS-j85mXG-3" target="3xvIhi2S66PUS-j85mXG-6">
          <mxGeometry relative="1" as="geometry" />
        </mxCell>
        <mxCell id="3xvIhi2S66PUS-j85mXG-3" value="Transaction1" style="rounded=0;whiteSpace=wrap;html=1;" vertex="1" parent="1">
          <mxGeometry x="40" y="210" width="120" height="60" as="geometry" />
        </mxCell>
        <mxCell id="3xvIhi2S66PUS-j85mXG-4" style="edgeStyle=orthogonalEdgeStyle;rounded=0;orthogonalLoop=1;jettySize=auto;html=1;exitX=1;exitY=0.5;exitDx=0;exitDy=0;entryX=0;entryY=0.5;entryDx=0;entryDy=0;" edge="1" parent="1" source="3xvIhi2S66PUS-j85mXG-6" target="3xvIhi2S66PUS-j85mXG-7">
          <mxGeometry relative="1" as="geometry">
            <Array as="points">
              <mxPoint x="400" y="240" />
              <mxPoint x="400" y="240" />
            </Array>
          </mxGeometry>
        </mxCell>
        <mxCell id="3xvIhi2S66PUS-j85mXG-5" style="edgeStyle=orthogonalEdgeStyle;rounded=0;orthogonalLoop=1;jettySize=auto;html=1;entryX=0;entryY=0.5;entryDx=0;entryDy=0;" edge="1" parent="1" source="3xvIhi2S66PUS-j85mXG-6" target="3xvIhi2S66PUS-j85mXG-8">
          <mxGeometry relative="1" as="geometry" />
        </mxCell>
        <mxCell id="3xvIhi2S66PUS-j85mXG-6" value="batch insert or update" style="rounded=0;whiteSpace=wrap;html=1;" vertex="1" parent="1">
          <mxGeometry x="240" y="210" width="120" height="60" as="geometry" />
        </mxCell>
        <mxCell id="3xvIhi2S66PUS-j85mXG-7" value="id=1" style="rounded=0;whiteSpace=wrap;html=1;" vertex="1" parent="1">
          <mxGeometry x="440" y="210" width="120" height="60" as="geometry" />
        </mxCell>
        <mxCell id="3xvIhi2S66PUS-j85mXG-8" value="id=2" style="rounded=0;whiteSpace=wrap;html=1;" vertex="1" parent="1">
          <mxGeometry x="440" y="290" width="120" height="60" as="geometry" />
        </mxCell>
        <mxCell id="3xvIhi2S66PUS-j85mXG-9" style="edgeStyle=orthogonalEdgeStyle;rounded=0;orthogonalLoop=1;jettySize=auto;html=1;entryX=0;entryY=0.5;entryDx=0;entryDy=0;" edge="1" parent="1" target="3xvIhi2S66PUS-j85mXG-10">
          <mxGeometry relative="1" as="geometry">
            <mxPoint x="360" y="240" as="sourcePoint" />
          </mxGeometry>
        </mxCell>
        <mxCell id="3xvIhi2S66PUS-j85mXG-10" value="id=2" style="rounded=0;whiteSpace=wrap;html=1;" vertex="1" parent="1">
          <mxGeometry x="440" y="290" width="120" height="60" as="geometry" />
        </mxCell>
        <mxCell id="3xvIhi2S66PUS-j85mXG-11" style="edgeStyle=orthogonalEdgeStyle;rounded=0;orthogonalLoop=1;jettySize=auto;html=1;entryX=0;entryY=0.5;entryDx=0;entryDy=0;exitX=1;exitY=0.5;exitDx=0;exitDy=0;" edge="1" parent="1" source="3xvIhi2S66PUS-j85mXG-6" target="3xvIhi2S66PUS-j85mXG-12">
          <mxGeometry relative="1" as="geometry">
            <mxPoint x="360" y="320" as="sourcePoint" />
          </mxGeometry>
        </mxCell>
        <mxCell id="3xvIhi2S66PUS-j85mXG-12" value="id=3" style="rounded=0;whiteSpace=wrap;html=1;" vertex="1" parent="1">
          <mxGeometry x="440" y="370" width="120" height="60" as="geometry" />
        </mxCell>
        <mxCell id="3xvIhi2S66PUS-j85mXG-13" style="edgeStyle=orthogonalEdgeStyle;rounded=0;orthogonalLoop=1;jettySize=auto;html=1;entryX=0;entryY=0.5;entryDx=0;entryDy=0;exitX=1;exitY=0.5;exitDx=0;exitDy=0;" edge="1" parent="1" source="3xvIhi2S66PUS-j85mXG-6" target="3xvIhi2S66PUS-j85mXG-14">
          <mxGeometry relative="1" as="geometry">
            <mxPoint x="360" y="320" as="sourcePoint" />
          </mxGeometry>
        </mxCell>
        <mxCell id="3xvIhi2S66PUS-j85mXG-14" value="id=4" style="rounded=0;whiteSpace=wrap;html=1;" vertex="1" parent="1">
          <mxGeometry x="440" y="450" width="120" height="60" as="geometry" />
        </mxCell>
        <mxCell id="3xvIhi2S66PUS-j85mXG-15" value="" style="edgeStyle=orthogonalEdgeStyle;rounded=0;orthogonalLoop=1;jettySize=auto;html=1;" edge="1" parent="1" source="3xvIhi2S66PUS-j85mXG-16" target="3xvIhi2S66PUS-j85mXG-19">
          <mxGeometry relative="1" as="geometry" />
        </mxCell>
        <mxCell id="3xvIhi2S66PUS-j85mXG-16" value="Transaction2" style="rounded=0;whiteSpace=wrap;html=1;" vertex="1" parent="1">
          <mxGeometry x="40" y="540" width="120" height="60" as="geometry" />
        </mxCell>
        <mxCell id="3xvIhi2S66PUS-j85mXG-17" style="edgeStyle=orthogonalEdgeStyle;rounded=0;orthogonalLoop=1;jettySize=auto;html=1;exitX=1;exitY=0.5;exitDx=0;exitDy=0;entryX=0;entryY=0.5;entryDx=0;entryDy=0;" edge="1" parent="1" source="3xvIhi2S66PUS-j85mXG-19" target="3xvIhi2S66PUS-j85mXG-20">
          <mxGeometry relative="1" as="geometry">
            <Array as="points">
              <mxPoint x="400" y="570" />
              <mxPoint x="400" y="570" />
            </Array>
          </mxGeometry>
        </mxCell>
        <mxCell id="3xvIhi2S66PUS-j85mXG-18" style="edgeStyle=orthogonalEdgeStyle;rounded=0;orthogonalLoop=1;jettySize=auto;html=1;entryX=0;entryY=0.5;entryDx=0;entryDy=0;" edge="1" parent="1" source="3xvIhi2S66PUS-j85mXG-19" target="3xvIhi2S66PUS-j85mXG-21">
          <mxGeometry relative="1" as="geometry" />
        </mxCell>
        <mxCell id="3xvIhi2S66PUS-j85mXG-19" value="batch insert or update" style="rounded=0;whiteSpace=wrap;html=1;" vertex="1" parent="1">
          <mxGeometry x="240" y="540" width="120" height="60" as="geometry" />
        </mxCell>
        <mxCell id="3xvIhi2S66PUS-j85mXG-20" value="id=4" style="rounded=0;whiteSpace=wrap;html=1;" vertex="1" parent="1">
          <mxGeometry x="440" y="540" width="120" height="60" as="geometry" />
        </mxCell>
        <mxCell id="3xvIhi2S66PUS-j85mXG-21" value="id=2" style="rounded=0;whiteSpace=wrap;html=1;" vertex="1" parent="1">
          <mxGeometry x="440" y="620" width="120" height="60" as="geometry" />
        </mxCell>
        <mxCell id="3xvIhi2S66PUS-j85mXG-22" style="edgeStyle=orthogonalEdgeStyle;rounded=0;orthogonalLoop=1;jettySize=auto;html=1;entryX=0;entryY=0.5;entryDx=0;entryDy=0;" edge="1" parent="1" target="3xvIhi2S66PUS-j85mXG-23">
          <mxGeometry relative="1" as="geometry">
            <mxPoint x="360" y="570" as="sourcePoint" />
          </mxGeometry>
        </mxCell>
        <mxCell id="3xvIhi2S66PUS-j85mXG-23" value="id=3" style="rounded=0;whiteSpace=wrap;html=1;" vertex="1" parent="1">
          <mxGeometry x="440" y="620" width="120" height="60" as="geometry" />
        </mxCell>
        <mxCell id="3xvIhi2S66PUS-j85mXG-24" style="edgeStyle=orthogonalEdgeStyle;rounded=0;orthogonalLoop=1;jettySize=auto;html=1;entryX=0;entryY=0.5;entryDx=0;entryDy=0;exitX=1;exitY=0.5;exitDx=0;exitDy=0;" edge="1" parent="1" source="3xvIhi2S66PUS-j85mXG-19" target="3xvIhi2S66PUS-j85mXG-25">
          <mxGeometry relative="1" as="geometry">
            <mxPoint x="360" y="650" as="sourcePoint" />
          </mxGeometry>
        </mxCell>
        <mxCell id="3xvIhi2S66PUS-j85mXG-25" value="id=2" style="rounded=0;whiteSpace=wrap;html=1;" vertex="1" parent="1">
          <mxGeometry x="440" y="700" width="120" height="60" as="geometry" />
        </mxCell>
        <mxCell id="3xvIhi2S66PUS-j85mXG-26" style="edgeStyle=orthogonalEdgeStyle;rounded=0;orthogonalLoop=1;jettySize=auto;html=1;entryX=0;entryY=0.5;entryDx=0;entryDy=0;exitX=1;exitY=0.5;exitDx=0;exitDy=0;" edge="1" parent="1" source="3xvIhi2S66PUS-j85mXG-19" target="3xvIhi2S66PUS-j85mXG-27">
          <mxGeometry relative="1" as="geometry">
            <mxPoint x="360" y="650" as="sourcePoint" />
          </mxGeometry>
        </mxCell>
        <mxCell id="3xvIhi2S66PUS-j85mXG-27" value="id=1" style="rounded=0;whiteSpace=wrap;html=1;" vertex="1" parent="1">
          <mxGeometry x="440" y="780" width="120" height="60" as="geometry" />
        </mxCell>
        <mxCell id="3xvIhi2S66PUS-j85mXG-28" value="" style="rounded=0;whiteSpace=wrap;html=1;fillColor=none;strokeColor=#FF0000;strokeWidth=2;" vertex="1" parent="1">
          <mxGeometry x="430" y="200" width="140" height="320" as="geometry" />
        </mxCell>
        <mxCell id="3xvIhi2S66PUS-j85mXG-29" value="" style="rounded=0;whiteSpace=wrap;html=1;fillColor=none;strokeColor=#3333FF;strokeWidth=2;" vertex="1" parent="1">
          <mxGeometry x="430" y="530" width="140" height="160" as="geometry" />
        </mxCell>
        <mxCell id="3xvIhi2S66PUS-j85mXG-30" value="" style="rounded=0;whiteSpace=wrap;html=1;fillColor=none;strokeColor=#FF0000;strokeWidth=2;" vertex="1" parent="1">
          <mxGeometry x="430" y="690" width="140" height="170" as="geometry" />
        </mxCell>
        <mxCell id="3xvIhi2S66PUS-j85mXG-31" value="&lt;font style=&quot;font-size: 14px&quot;&gt;事务1批量更新时，需要获取4个对应id的行级锁。&lt;/font&gt;" style="text;html=1;align=center;verticalAlign=middle;whiteSpace=wrap;rounded=0;fillColor=none;" vertex="1" parent="1">
          <mxGeometry x="50" y="315" width="310" height="35" as="geometry" />
        </mxCell>
        <mxCell id="3xvIhi2S66PUS-j85mXG-32" value="&lt;font style=&quot;font-size: 14px&quot;&gt;事务2批量更新时，也要获取4个对应id的行级锁，但和事务1顺序不同。&lt;/font&gt;" style="text;html=1;align=center;verticalAlign=middle;whiteSpace=wrap;rounded=0;fillColor=none;" vertex="1" parent="1">
          <mxGeometry x="50" y="665" width="310" height="35" as="geometry" />
        </mxCell>
        <mxCell id="3xvIhi2S66PUS-j85mXG-33" style="edgeStyle=orthogonalEdgeStyle;rounded=0;orthogonalLoop=1;jettySize=auto;html=1;fontSize=14;entryX=0.5;entryY=0;entryDx=0;entryDy=0;" edge="1" parent="1" source="3xvIhi2S66PUS-j85mXG-34" target="3xvIhi2S66PUS-j85mXG-36">
          <mxGeometry relative="1" as="geometry">
            <mxPoint x="765" y="555" as="targetPoint" />
          </mxGeometry>
        </mxCell>
        <mxCell id="3xvIhi2S66PUS-j85mXG-34" value="&lt;font style=&quot;font-size: 14px&quot;&gt;事务1批量更新时，已经获取到id=1和id=2的行级锁。&lt;/font&gt;" style="text;html=1;align=center;verticalAlign=middle;whiteSpace=wrap;rounded=0;fillColor=none;" vertex="1" parent="1">
          <mxGeometry x="610" y="480" width="340" height="30" as="geometry" />
        </mxCell>
        <mxCell id="3xvIhi2S66PUS-j85mXG-35" style="edgeStyle=orthogonalEdgeStyle;rounded=0;orthogonalLoop=1;jettySize=auto;html=1;exitX=0.5;exitY=1;exitDx=0;exitDy=0;fontSize=14;" edge="1" parent="1" source="3xvIhi2S66PUS-j85mXG-36" target="3xvIhi2S66PUS-j85mXG-37">
          <mxGeometry relative="1" as="geometry">
            <mxPoint x="765" y="610" as="targetPoint" />
          </mxGeometry>
        </mxCell>
        <mxCell id="3xvIhi2S66PUS-j85mXG-36" value="&lt;font style=&quot;font-size: 14px&quot;&gt;事务2批量更新时，按照id=4,3,2,1的顺序获取行级锁，且已经获取到id=3,4的行级锁。&lt;/font&gt;" style="text;html=1;align=center;verticalAlign=middle;whiteSpace=wrap;rounded=0;fillColor=none;fontSize=14;" vertex="1" parent="1">
          <mxGeometry x="610" y="550" width="340" height="40" as="geometry" />
        </mxCell>
        <mxCell id="3xvIhi2S66PUS-j85mXG-37" value="死锁出现：事务1等待事务2释放3,4行级锁，事务2等待事务1释放1，2行级锁。" style="text;html=1;strokeColor=none;fillColor=none;align=center;verticalAlign=middle;whiteSpace=wrap;rounded=0;fontSize=14;" vertex="1" parent="1">
          <mxGeometry x="650" y="620" width="260" height="50" as="geometry" />
        </mxCell>
      </root>
    </mxGraphModel>
  </diagram>
</mxfile>
